<svg id="Layer_2" data-name="Layer 2" xmlns="http://www.w3.org/2000/svg" viewBox="0 0 500 500"><defs><style>.cls-1{fill:#0ad0c8;}.cls-2{fill:#b4f0ee;}.cls-3{fill:#fefefe;}.cls-4{font-size:86px;font-family:Maler-Regular, Maler;}.cls-5{font-size:33px;font-family:AvenirNextCyr-Bold, Avenir Next Cyr;font-weight:700;}.cls-6{letter-spacing:0.02em;}.cls-7{letter-spacing:-0.06em;}.cls-8{letter-spacing:-0.02em;}.cls-9{letter-spacing:0em;}</style></defs><path class="cls-1" d="M93.9,329.9c.32-.55,1.06-.82,1.12-1.6-1.78-.9-2.68,1.07-4.31,1.13-.85-2.58,2.57-2,2.84-3.64-.34-.5-.76-.32-1.14-.24-.76.16-1.74,1-2.22.06s.85-.88,1.33-1.32a3.08,3.08,0,0,0,.63-1c-1.4-1-.38-2.37-.45-3.55-.16-2.4-1.44-3.38-4.3-3.37-.06-.81.68-.79,1.12-1.06,1.34-.82,3.37-1.07,2.76-3.45s-2.74-4-5-3.59c-1.83.38-1.72.13-1.41-1.52.44-2.29-1.59-.5-2.56-1.07,1.25-1.31,2.81-2.25,2.48-4.43a2,2,0,0,0-1-1.71c-3.32-1.82-3.77-5.51-.78-7.77,1.85-1.4.35-2.84.11-4-.49-2.42-.13-3.45,2-4.78,2.8-1.72,5.9-3,8.29-5.36.36-.37,1.23-.6.72-1.34-1.5-2.19.32-2.49,1.68-3a10.45,10.45,0,0,0,4.53-3.56c-7.26.63-7.24.62-9.49-6.13-.43-1.29-.72-2.67-2-3.58-.83-.57-.87-1.74-.92-2.75a34.82,34.82,0,0,0-.29-4c-.12-.7.87-2.8-1.58-1.56-.38.2-1.75-1.09-1.74-2.67,0-3.89-.36-4-3.8-2.05-7.22,4.11-14.53,8.07-21.65,12.37-4.23,2.56-9.07,3.7-13.33,6.13a3.37,3.37,0,0,1-4.54-1.35c-.73-1.19-2.27-3-.11-4.83a4.51,4.51,0,0,0,.79-4c-.38-1.06-1-2.71-3-2.79-1.42-.06-2.16-3.15-1.25-4.48.32-.48.72-.9,1.08-1.35l.46-.38c-.3-.35-.51-.07-.73.11-2.66.86-1.89-1-1.86-2.51-1.36.17-2.72.93-4.05.33a5.21,5.21,0,0,1-3-2.83c-.68-1.74-.51-2.08,3.15-4.87-2.08.91-2.93-.43-4-.95-1.3-.65-1.11-2.28-.67-3.64.05-.15.1-.42,0-.46-2.64-1.6-.37-2.53.68-3.68-1.53-.72-2.51,1.09-3.83.56-.21-2,3.21-1.83,2.62-4.22-1.54.35-2.28,2.22-4.25,1.67-.36-.65,1.54-2.22-.61-2.55.06-.32,0-.75.2-1,1.62-1.84.82-5,3.36-6.32.78-.42.56-1.13.17-1.73-.54-.83-1-.1-1.42.16-.78.48-1.51,1-2.25,1.56-1.94,1.35-3.67.58-4.07-1.81a6.76,6.76,0,0,0-.19-1.45c-1.62-4-.92-6.08,3.09-8.37a9.53,9.53,0,0,0,2.89-2.25c.72-.88,1.58-1.92,3.14-1,.81.49,1.74-.16,2.46-.79A27.81,27.81,0,0,1,41,194c1.62-.45,2.82-1.93,4.09-2.93,10.46-8.28,22.14-14.75,32.94-22.53a129.09,129.09,0,0,1,11.3-6.85c6.79-3.88,13.62-7.67,20.44-11.5.92-.51,1.76-1.16,3-.52.42.22,1.31-.17,1.85-.5,6.7-4.07,13.89-7.28,20.64-11.2,19.1-11.11,38.39-21.87,57.76-32.48,6.48-3.55,12.81-7.35,19.31-10.85,3-1.62,6.21-3,8.88-5.25,1.84-1.58,4.64-1,6.67-2.57,4.31-3.28,9.74-4.08,14.6-6.16,1.73-.75,4.07-.17,6.24-.46-1.24.71-2.48,1.43-3.72,2.13-.77.43-1.55.93-1.09,1.91s1.39.63,2.14.24c2.44-1.25,4.86-2.54,7.31-3.78.68-.35,1.61-1.41,1.7.51.05.83.79.67,1.36.65,1.12,0,2.51-.47,2.83,1.15s.93,3.48-.89,4.79c-1.28.93-2.54,1.88-3.81,2.82a3.26,3.26,0,0,0-1.63,2.1c-.12.79-.88,1.59-.27,2.35s1.5-.27,2.24-.13c.64.74-2.06,1.62.08,2.09.79.18,1.63-1.13,2.76-.65.22,1.09-1.18,1.08-1.27,1.94l-.33.24c.05,0,.14.15.16.14a3.73,3.73,0,0,0,.3-.26l1.95-.13c-.66,1.47-2.13,2.23-2.08,3.89,0,.72-.77,1.46.16,2.15a2.2,2.2,0,0,0,2.73-.18c1.14-.73,2-2,3.58-1.88l.07.06c-.8,1.34-2.43,1.72-3.37,2.85-.76.93-2.35,1.83-.31,3.3,1.23.9-1,1.14-.62,2.38.33.48,1.27.17,2,.45s1.53.78,1.16,1.34c-1.32,2.05.49,2.31,1.91,3.14-2.08.88-3.21,2.16-3.17,4.29,0,1.54-2.34.75-2.49,2.29-.12,1.29,2.64.12,1.76,2.09-.19.41.36.66.65.93,2.33,2.22,2.33,2.22.15,4.42,7.22-.11,13.23-3.7,19.35-6.88,9.51-4.94,18.77-10.37,28.45-15,1.45-.68,2.31-1.46,2.08-3.16a1.87,1.87,0,0,1,1.15-2A190.77,190.77,0,0,1,334.36,91.6c3.21-1.38,6.42-2.74,10-2.94l.2.2c-1.26.78-2.5,1.57-3.77,2.32-.57.33-.92.77-.7,1.4a1.13,1.13,0,0,0,1.62.69,28.64,28.64,0,0,0,2.91-1.38c2.54-1.35,4.56-.08,4.48,2.86-.05,2,1.83,2.31,2.89,3.46-1.09,1.12-2.75,1.73-2.94,3.53-.1,1-1.19,2.31,1.16,2.16,1.56-.1-.55,1.4.8,1.82.87.12,1.66-1.36,2.91-.81.38,1-.84,1.1-1,1.78l-.29.43.57-.15c.55,0,1.13-.4,1.76.14-1,1.09-2.15,2.11-2.25,3.82,0,.74-.47,1.46.26,2a2,2,0,0,0,2.35,0c1.1-.64,1.93-1.75,3.66-2.07-.62,1.43-1.9,1.67-2.55,2.48-.85,1.08-3.2,1.85-.74,3.81,1,.82-1.21,1.09-.85,2.31.4.53,1.25.09,1.92.31s1.63.73,1.35,1.2c-1.32,2.2.71,2.56,2,3.58-2.06.59-3.27,1.67-3.09,3.78a1,1,0,0,1,0,.49c-.44,1.15-2.1.73-2.49,1.82-.53,1.5,2.33.27,1.79,2.14-.39,1.35,1.32,1.41,1.93,2.21.74,1,1.27,1.64-.34,2.43-3.26,1.6-6.46,3.34-9.59,5.13-4.85,2.78-10.65,3.86-14.89,7.36-5.46,4.5-12.47,5.29-18.2,8.92-1.9,1.21-3.91,2.2-5.37,4a8.3,8.3,0,0,1-4,2.38c-2.23.77-2.49,1.79-1.08,3.61a3.66,3.66,0,0,1,.73,1.28c.49,2.08,2.09,1.94,3.29,1.26,2.52-1.44,5.29-1.92,8-2.69a25.88,25.88,0,0,0,7.58-3c8.54-5.64,18.14-9.19,28-14-1.72,3.07.65,4,1.82,5.17,1.69,1.68,2.63,3.17,1.33,5.42a1.12,1.12,0,0,0,.16,1.57c1.08.9,2.17.3,3.37-.2.21,1.08-.72,1.36-1,2s-.85,1.58-.37,1.81c2.22,1.08.27,1.94-.13,2.78.65.83,1.51.33,2.16.62s1.58.81,1.29,1.3c-1.2,2,.35,2.52,2,3.28-2.15.89-3.1,2.17-3.12,4.26,0,1.42-2.19.89-2.53,2-.46,1.48,2.1.4,2,2-.1,1.08.17,1.16.95.53a9.59,9.59,0,0,0,1.94-1.93c2.61-3.79,6.45-4.5,10.39-3.41,3.49,1,5.69-.12,7.65-2.7a4.38,4.38,0,0,1,3.22-1.56c5.9-.81,11.87-1.43,17.38-3.92.73-.33,1.05.09,1.55.3a10.7,10.7,0,0,0,1.54.42c-1.61,1.68-1.32,4-2.52,5.85-.78,1.19.41,1,1.14.84l.35.39-1.35,1.92c1.51.33,2.3-.52,3.18-1.21.34-.26.82-.8,1.25-.28a1.12,1.12,0,0,1-.11,1.58c-.77.71-2,1-2.24,2.19l-.23.26.19,0v-.31c.37.38.76.19,1.14,0,.75-.29,1.73-1.09,2.25-.31s-.8,1-1.21,1.51a4.09,4.09,0,0,0-.48,1.05c2.07,1,.56,2.86,1,4.24s2.79,2.23,4.73,1.81c.25.94-.6,1-1.07,1.39-1.35,1-3,1.73-2,3.92a4.81,4.81,0,0,0,5.09,2.72c.71-.14,1.36-.66,2.24-.21-.05.73-1.17,1.61-.17,2.29s1.79-.87,3-.79c.23,1-.65,1.18-1.12,1.61-2.33,2.15-1.84,4.06.85,5.55,1.3.72,3.15,2,2.13,4.31-.52,1.2-.25,2.53-1.55,3.68-1,.85.5,2.54,1.1,3.71s1.71.9,2.83.46c10.12-4,20.36-7.72,30.82-10.77,1.48-.43,3-1.15,4.77-.38-.78,1.49-2.64,1.23-3.64,2.32.36.66,1,.46,1.5.55.84.13,2.14-.31,2.32.8A2.74,2.74,0,0,1,456,215.1c-.6.25-1.25.37-2.6.76a14.15,14.15,0,0,0,11.15.68c-.45,1.09-1.32,1.2-1.9,1.6s-1.46.79-2.18,1.22-1.38.82-.87,1.74,1.29.73,2,.38c2.08-1,4.16-2.1,6.17-3.27,1.2-.7,1.8-.37,2.16.83.05.16,0,.38.1.48,2.91,3.39,3.87,6.54-.92,9.23-.1.06-3.32,3.11.75,3.43.08,0,.23,0,.22.06-.08,4.24,2.62-.66,3.29,1.11.36.9-.84,1-1,1.69l-.28.42.56-.14c.77,0,2.2-.41.88,1.07a4.13,4.13,0,0,0-1.08,2.26c-.54,3-.28,3.36,2.93,2.66.29,1-.86,1.32-1,2.12-.06.47-.47.88-.21,1.42.74,1.54.73,1.67-.32,2.9,4-.45,2.37,4.45,6.22,4.91-2.53.84-3.78,1.91-3.63,3.94.08,1.14-.8,1.28-1.54,1.63-.41.18-1.07.24-1,.91s.7.65,1,1a23.16,23.16,0,0,1,3.32,4.31c.73,1.38-1.73,1-1.73,2.79,1.84-1.58,3.67-.95,5.51-.56l0,0a21,21,0,0,1-5,4.41,3.72,3.72,0,0,1-3.93.45c-2.48-1-4.3,1.12-6.56,1.73,1.81,1.56,1.6,2.62-1.09,3.42-4.34,1.3-8.24,3.56-12.42,5.17a24.75,24.75,0,0,0-4.1,2.35c-.28.17-.74.43-.72.62.28,3.7-3.06,3.1-4.94,3.88-3.09,1.3-5.82,2.42-5,6.63.15.85-1,1.59-2,1.94-5.2,1.94-10.41,3.87-15.64,5.75a3.09,3.09,0,0,0-1.54.71c-2.15,2.54-5.2,3.55-8.14,4.65a57.35,57.35,0,0,0-9,4.45c-6.45,3.81-13.56,6.23-20.21,9.6-5.18,2.62-10.79,4.69-15.34,8.14-2.23,1.69-4.49,1.08-6.53,2.32A85.62,85.62,0,0,1,347,339.46c-5,2-9.46,5-14.31,7.18a132.84,132.84,0,0,0-16.54,9.65c-6,3.89-13,6-19,9.82-.88.57-1.95.85-2.32,2.09a1.43,1.43,0,0,1-1.82.88c-1.69-.32-2.77-.15-3.77,1.9-.78,1.59-3.26,2.56-5.19,3.32-2.63,1-4,3.53-6.44,4.79-1.12.58.16,2.67-.78,3.13s-1.14-1.76-2.56-1.75c-1.13,0-1.63.67-2.42,1.28-1.4,1.07-3.25,1.53-4.8,2.44-.73.43-2.06.44-1.7,2.2.16.76-1.58,1.36-2.68,1.2a2,2,0,0,0-2.32,1.26c-1,1.73-2.8,2.54-4.5,3.44l-.38-.44a.93.93,0,0,1,.09-.4l.36-.23-.31-.11v.37c-.47-.1-.94-.17-1.06.5l.05-.05c-.34,0-.8-.08-.53.55l0-.05c-2.5.13-4.26,1.89-6.24,3-9.1,5.3-18.06,10.85-27.15,16.18-3,1.76-6.22,3.13-9.29,4.76-1.78.94-4.07-.44-5.63,1.33a1,1,0,0,1-.55-.34.78.78,0,0,1,.43-1c2.4-1.25,1.16-2.22-.25-3.08s-1.34-2.77-3.06-3.33c-.51-.16,0-.88.51-1,1.55-.44,1.88-1.56,1.92-3s1.26-2.19,2.69-2.75c-1.17-.87-3.38-.91-2-3.16.32-.53-.47-1-1.06-1.09-.79-.17-1.6-.26-2.53-.4.07-1.08,2.15-2,0-3.13-.67-.35.4-1.93.86-2.88a1.81,1.81,0,0,0,1.47-1.45,1.79,1.79,0,0,0-1.69,1.06c-1.14.44-2.77.76-3-.56-.29-1.88-.27-4.09,2.06-5.16-1-.8-1.74.57-2.5-.15,0-1,1.45-1.07,1.38-2.13-.59-.36-1,.12-1.39.28-.82.29-1.5,1.59-2.29-.52-.36-.95-1.84-1.41-1.33-3.2s1.7-2.35,2.77-3.33c1.5-1.39,3.39-2.38,4.09-4.54.41-1.27,2.13-1.17,2.83-2.25l.67-.21c-.08-.08-.19-.26-.22-.24a6.16,6.16,0,0,0-.55.33c-2.07.48-3.89.84-4.74-2.05-.3-1-1.9-1.55-3.37-.56-2.49,1.66-5.09,3.15-7.7,4.62-.93.52-2.13,1.67-3,.26s.54-2,1.5-2.6l2.31-1.55c-3.75.4-6.95,1-10.5-1.06,2.34-.73,4.71-1.24,4.4-3.52-.3-2.12-2.94.22-4-1.35.41-1,1.47-1,2.21-1.42,1.23-.74,2.82-1.28,1.19-3.1a.73.73,0,0,1-.19-.43c0-1,2.07-1.8.51-2.72-1.39-.82-.84-2.25-1.79-3.33-4.18,2.35-8.39,4.77-12.64,7.1-3,1.63-6.18,2.95-9,4.78-2.56,1.64-5.49.71-8.34,2.17.57-2,2.53-2,3.42-3.62-1.94.58-3.51,1-5.07,1.54-2,.67-2.35-.33-2-2a8.22,8.22,0,0,1,.34-1.2c.76-2.23.45-3.92-2.76-4.34a25.93,25.93,0,0,0,2.48-1.48c1.14-.9,1.94-1.81-.14-2.65-1.77-.72-1.63-2.31-1.5-3.82.16-2-.54-2.6-2.33-2a17.54,17.54,0,0,0-2.67,1.34Q128.6,354.75,115.68,362a.79.79,0,0,1-1.15-.06,40.69,40.69,0,0,1,6.09-4q11.67-6.48,23.3-13c.51-.28,1-.61,1.48-.93a.8.8,0,0,0,.41-1.05c-.26-.47-.7-.26-1.08-.06-1,.5-1.94.95-2.88,1.48q-16.32,9.16-32.6,18.37c-1,.58-1.57.7-2.4-.35a3.94,3.94,0,0,0-4.38-1.53c-1,.29-1.56.34-1-1.27.94-2.84-1.63-.7-2.52-1.43,1.29-1.3,3.15-2.25,2.59-4.58a2.06,2.06,0,0,0-1-1.56c-3.12-1.75-4.08-5.11-1.45-7.16,2-1.56,1.15-2.84.85-4.28-.4-1.89-3.38-3.34-5.25-2.56-1,.43-1.49-.1-2.13-.62-.85-.67-.19-1.16.17-1.65.89-1.25.82-3,2.22-4,.19-.14,1.35-1.76-.66-1.34C94.16,330.21,94,330.05,93.9,329.9Zm112.3,59.55c-1,.13-1.49.55-2.11,1.74C205.29,390.65,206,390.41,206.2,389.45Z"/><path class="cls-1" d="M255.78,392.29c-.57.19-1.05,1.55-1.76.14l0,.05a.52.52,0,0,0,.53-.55l-.05.05.93-.13Z"/><path class="cls-1" d="M344.33,88.66c.17-.33.57-.42.69-.17s-.25.33-.49.37Z"/><path class="cls-1" d="M402.4,178.12c.23-.31.45-.71.88-.27a6.91,6.91,0,0,1-.53.66Z"/><path class="cls-1" d="M93.63,330.64c-.18.33-.57.46-.76.22s.23-.41.41-.59Z"/><path class="cls-1" d="M255.72,94.42l.18.16c-.07,0-.13.14-.19.13s-.11-.1-.16-.16Z"/><path class="cls-1" d="M262.94,102.25a2.1,2.1,0,0,1,.22-.3,1.1,1.1,0,0,1,.2.11c-.12.08-.24.16-.35.25Z"/><path class="cls-1" d="M482,266.65l.11-.32c0,.05,0,.11,0,.14a1.3,1.3,0,0,1-.18.15Z"/><path class="cls-1" d="M93.28,330.27c.2-.13.41-.25.62-.37.13.15.26.31.38.47l-.65.27Z"/><path class="cls-2" d="M206.2,389.45c-.25,1-.91,1.2-2.11,1.74C204.71,390,205.2,389.58,206.2,389.45Z"/><path class="cls-2" d="M202.43,392.12a1.79,1.79,0,0,1,1.69-1.06,1.81,1.81,0,0,1-1.47,1.45A.38.38,0,0,1,202.43,392.12Z"/><path class="cls-3" d="M205,370.44a6.16,6.16,0,0,1,.55-.33s.14.16.22.24l-.67.21Z"/><path class="cls-3" d="M255.4,391.85l-.93.13c.12-.67.59-.6,1.06-.5l0,0A.93.93,0,0,0,255.4,391.85Z"/><path class="cls-3" d="M256.6,98.4a3.73,3.73,0,0,1-.3.26s-.11-.09-.16-.14l.33-.24Z"/><path class="cls-3" d="M353.16,107l-.57.15.29-.43C353,106.78,353.06,106.88,353.16,107Z"/><path class="cls-3" d="M403.44,182.68V183l-.19,0,.23-.26Z"/><path class="cls-3" d="M472.63,235.32l-.56.14.28-.42A3.7,3.7,0,0,1,472.63,235.32Z"/><path class="cls-3" d="M38.31,246.39c.22-.18.43-.46.73-.11l-.46.38A2.29,2.29,0,0,1,38.31,246.39Z"/><path class="cls-3" d="M255.53,391.48v-.37l.31.11-.36.23Z"/><path class="cls-3" d="M254.52,391.93a.52.52,0,0,1-.53.55C253.72,391.85,254.18,392,254.52,391.93Z"/><text class="cls-4" transform="translate(97.18 255)">новые<tspan x="0" y="79">люди</tspan></text><text class="cls-5" transform="translate(102.21 178.36)"><tspan class="cls-6">С</tspan><tspan class="cls-7" x="23.63" y="0">Т</tspan><tspan x="40.82" y="0">АВРОП</tspan><tspan class="cls-8" x="161.1" y="0">О</tspan><tspan class="cls-9" x="188.53" y="0">ЛЬ</tspan></text></svg>