<svg xmlns="http://www.w3.org/2000/svg" viewBox="0 0 24 24">
  <path d="M11.191406 0.97265625L10.390625 4.859375L6.7539062 7.9375L6.8457031 7.8671875C6.2470184 8.2663106 6 8.9777778 6 9.5L6 19C6 19.522222 6.1913289 20.05461 6.5683594 20.431641C6.9453899 20.808671 7.4777778 21 8 21L16.599609 21C17.280334 21 18.102465 20.62856 18.404297 19.830078L21.78125 13.074219C21.82637 12.997559 21.914981 12.915212 21.935547 12.853516C22.032372 12.563033 22 12.450391 22 12.400391L22 10C22 9.4777778 21.808671 8.9453899 21.431641 8.5683594C21.05461 8.1913289 20.522222 8 20 8L15.433594 8C15.71552 7.1257881 16 5.9985164 16 4.9003906C16 3.1432478 14.919879 1.9921659 13.947266 1.5058594C12.974653 1.0195529 12.033203 1 12.033203 1L11.191406 0.97265625 z M 12.769531 3.21875C12.900789 3.259463 12.915287 3.2261999 13.052734 3.2949219C13.580121 3.5586153 14 3.8575335 14 4.9003906C14 6.2082338 13.076172 8.6152344 13.076172 8.6152344L12.5 10L20 10L20 12.162109L16.582031 19L8 19L8 9.5019531L8 9.5L8.0019531 9.5L12.208984 5.9394531L12.769531 3.21875 z M 2 8L2 21L4 21L4 8L2 8 z" fill="#5B5B5B" />
</svg>