<svg xmlns="http://www.w3.org/2000/svg" viewBox="0 0 24 24">
  <path d="M12 1C10.696 1 9.5965937 1.837 9.1835938 3L5 3C3.895 3 3 3.895 3 5L3 19C3 20.105 3.895 21 5 21L19 21C20.105 21 21 20.105 21 19L21 5C21 3.895 20.105 3 19 3L14.816406 3C14.403406 1.837 13.304 1 12 1 z M 12 3C12.552 3 13 3.448 13 4C13 4.552 12.552 5 12 5L19 5L19 19L5 19L5 5L12 5C11.448 5 11 4.552 11 4C11 3.448 11.448 3 12 3 z M 15.292969 8.2929688L11 12.585938L8.7070312 10.292969L7.2929688 11.707031L11 15.414062L16.707031 9.7070312L15.292969 8.2929688 z" fill="#5B5B5B" />
</svg>