<svg xmlns="http://www.w3.org/2000/svg" viewBox="0 0 24 24">
  <path d="M12 2 A 2 2 0 0 0 10 4 A 2 2 0 0 0 12 6 A 2 2 0 0 0 14 4 A 2 2 0 0 0 12 2 z M 5 6 A 2 2 0 0 0 3 8 A 2 2 0 0 0 5 10 A 2 2 0 0 0 7 8 A 2 2 0 0 0 5 6 z M 19 6 A 2 2 0 0 0 17 8 A 2 2 0 0 0 19 10 A 2 2 0 0 0 21 8 A 2 2 0 0 0 19 6 z M 12 8 A 2 2 0 0 0 10 10 A 2 2 0 0 0 12 12 A 2 2 0 0 0 14 10 A 2 2 0 0 0 12 8 z M 12 13C10.665 13 9 13.720781 9 15.050781L9 16L15 16L15 15.050781C15 13.720781 13.335 13 12 13 z M 5 14 A 2 2 0 0 0 3 16 A 2 2 0 0 0 5 18 A 2 2 0 0 0 7 16 A 2 2 0 0 0 5 14 z M 19 14 A 2 2 0 0 0 17 16 A 2 2 0 0 0 19 18 A 2 2 0 0 0 21 16 A 2 2 0 0 0 19 14 z M 12 18 A 2 2 0 0 0 10 20 A 2 2 0 0 0 12 22 A 2 2 0 0 0 14 20 A 2 2 0 0 0 12 18 z" fill="#5B5B5B" />
</svg>