<svg xmlns="http://www.w3.org/2000/svg" viewBox="0 0 24 24">
  <path d="M6 2C4.895 2 4 2.895 4 4L4 9L3 9C1.895 9 1 9.895 1 11L1 16C1 17.105 1.895 18 3 18L4 18L4 20C4 21.105 4.895 22 6 22L14.171875 22L12.171875 20L6 20L6 18L16 18L16 15C16 14.448 16.448 14 17 14L20 14L20 7L15 2L6 2 z M 6 4L14 4L14 8L18 8L18 9L6 9L6 4 z M 3.0253906 11L4.2734375 11L4.9980469 12.716797L5.7246094 11L6.9707031 11L5.703125 13.478516L7 16L5.7382812 16L4.9980469 14.251953L4.2617188 16L3 16L4.2949219 13.478516L3.0253906 11 z M 8 11L9 11L9 15L11 15L11 16L8 16L8 11 z M 13.490234 11C14.913234 11.041 15 12.282906 15 12.503906L14.03125 12.503906C14.031351 12.398143 14.046836 11.806641 13.472656 11.806641C13.297656 11.806641 12.905547 11.884187 12.935547 12.367188C12.964547 12.808188 13.547297 13.018406 13.654297 13.066406C13.878297 13.148406 14.987094 13.642391 14.996094 14.650391C14.998094 14.864391 14.942766 15.985 13.509766 16C11.950766 16.017 11.845703 14.675437 11.845703 14.398438L12.820312 14.398438C12.820312 14.545438 12.832766 15.256172 13.509766 15.201172C13.916766 15.167172 14.005531 14.87425 14.019531 14.65625C14.042531 14.28925 13.692266 14.068625 13.322266 13.890625C12.802266 13.640625 11.979844 13.333375 11.964844 12.359375C11.951844 11.482375 12.596234 10.975 13.490234 11 z M 18 16L18 20L15 20L19 24L23 20L20 20L20 16L18 16 z" fill="#5B5B5B" />
</svg>