<svg xmlns="http://www.w3.org/2000/svg" viewBox="0 0 24 24">
  <path d="M11.5 0C8.467 0 6 2.467 6 5.5C6 7.5667419 7.1831368 9.4391323 9 10.371094L9 13.626953L7.3457031 12.855469C6.3987031 12.413469 5.2825 12.624906 4.5625 13.378906L3.0078125 15.007812L9.1210938 21.121094C9.6880937 21.688094 10.441187 22 11.242188 22L17 22C18.654 22 20 20.654 20 19L20 14.001953C20 12.562953 18.974547 11.323688 17.560547 11.054688L14 10.378906L14 10.371094C15.816863 9.4391323 17 7.5667419 17 5.5C17 2.467 14.533 0 11.5 0 z M 11.5 2C13.43 2 15 3.57 15 5.5C15 6.4249716 14.625743 7.2896382 14 7.9277344L14 6.5C14 5.122 12.878 4 11.5 4C10.122 4 9 5.122 9 6.5L9 7.9277344C8.3742567 7.2896382 8 6.4249716 8 5.5C8 3.57 9.57 2 11.5 2 z M 11.5 6C11.776 6 12 6.224 12 6.5L12 12.033203L17.1875 13.019531C17.6585 13.108531 18 13.522953 18 14.001953L18 19C18 19.551 17.551 20 17 20L11.242188 20C10.975188 20 10.724156 19.896031 10.535156 19.707031L5.8027344 14.974609L6.0097656 14.759766C6.1377656 14.626766 6.334 14.590969 6.5 14.667969L11 16.767578L11 6.5C11 6.224 11.224 6 11.5 6 z" fill="#5B5B5B" />
</svg>