<svg xmlns="http://www.w3.org/2000/svg" viewBox="0 0 24 24">
  <path d="M3.9980469 3C2.8980469 3 2.0097656 3.9 2.0097656 5L2 16.998047C2 18.103047 2.895 19 4 19L5.9980469 19L6 19L6 23L9.9980469 19L19.998047 19C21.098047 19 21.998047 18.1 21.998047 17L21.998047 5C21.998047 3.9 21.098047 3 19.998047 3L3.9980469 3 z M 3.9980469 5L20 5L20 17L5.9980469 17L4 17L3.9980469 5 z M 7 8L7 12L9 12L7 15L9 15L11 12L11 11L11 8L7 8 z M 13 8L13 12L15 12L13 15L15 15L17 12L17 11L17 8L13 8 z" fill="#5B5B5B" />
</svg>